# File created by Blade
# Date/Time:  Thu Jan 22 19:01:15 2015
# Frame Rate: 120.000 fps
#------------------------------------------------------
:FULLY-SPECIFIED
:DEGREES
1775
root -2.850225 33.313139 -0.401780 9.948142 4.710644 3.113721
RightUpLeg -1.849563 -9.072023 -1.445031
RightLeg -1.132996 -0.000000 0.000000
RightFoot -10.478184 -6.721983 3.587062
RightToeBase 5.339397 -0.000000 -0.000000
LeftUpLeg -3.581198 1.588931 1.300292
LeftLeg -1.042898 -0.000000 0.000000
LeftFoot -6.584683 -2.616601 -9.975124
LeftToeBase 7.987304 -0.000000 -0.000000
Spine -12.350408 -3.183838 -4.998395
RightShoulder -29.811310 10.096722 -51.702486
RightArm 135.361774 48.313850 114.607090
RightForeArm 37.446068 -0.000000 151.657462
RightHand 21.353989 -0.000000 -15.513514
RightHandThumb1 -24.326973 -0.000000 -32.862282
LeftShoulder -10.503808 16.036523 12.818710
LeftArm -172.364155 60.892650 -271.184195
LeftForeArm 19.899999 -0.000000 130.316782
LeftHand 2.585978 -0.000000 -35.454937
LeftHandThumb1 -26.253704 0.000000 33.147579
Head 6.212613 4.311136 3.901429
1776
root -2.847270 33.314044 -0.401609 9.922959 4.634671 3.104064
RightUpLeg -1.821755 -8.997521 -1.455843
RightLeg -1.168246 -0.000000 0.000000
RightFoot -10.440903 -6.720969 3.593155
RightToeBase 5.344279 -0.000000 -0.000000
LeftUpLeg -3.529619 1.664439 1.290552
LeftLeg -1.072156 -0.000000 0.000000
LeftFoot -6.581230 -2.600478 -9.949742
LeftToeBase 7.988011 -0.000000 -0.000000
Spine -12.274098 -3.244824 -4.927841
RightShoulder -29.869194 10.024793 -51.656480
RightArm 135.485695 48.278750 114.483856
RightForeArm 37.188767 -0.000000 151.660369
RightHand 21.249759 -0.000000 -15.594992
RightHandThumb1 -24.326973 -0.000000 -32.862282
LeftShoulder -10.538786 16.191710 12.793918
LeftArm -172.115453 60.965871 -270.830827
LeftForeArm 19.937688 -0.000000 130.375290
LeftHand 2.466704 -0.000000 -35.749504
LeftHandThumb1 -26.253704 0.000000 33.147579
Head 6.079467 4.491128 3.857843
1777
root -2.845498 33.315732 -0.405137 9.918688 4.572343 3.099437
RightUpLeg -1.830290 -8.972109 -1.460620
RightLeg -1.180837 -0.000000 0.000000
RightFoot -10.410492 -6.694814 3.585669
RightToeBase 5.367475 -0.000000 -0.000000
LeftUpLeg -3.520329 1.708854 1.281393
LeftLeg -1.075334 -0.000000 0.000000
LeftFoot -6.576322 -2.574589 -9.950773
LeftToeBase 7.998417 -0.000000 -0.000000
Spine -12.201780 -3.311526 -4.861495
RightShoulder -29.941904 9.901308 -51.589125
RightArm 135.719623 48.195727 114.496612
RightForeArm 36.960729 -0.000000 151.650704
RightHand 21.140039 0.000000 -15.610500
RightHandThumb1 -24.326973 -0.000000 -32.862282
LeftShoulder -10.588658 16.327825 12.753620
LeftArm -171.991984 60.945178 -270.584312
LeftForeArm 20.059546 -0.000000 130.492446
LeftHand 2.386306 -0.000000 -35.959585
LeftHandThumb1 -26.253704 0.000000 33.147579
Head 5.930719 4.641279 3.823381
1778
root -2.844315 33.317425 -0.406408 9.893852 4.499376 3.099171
RightUpLeg -1.810719 -8.925826 -1.474014
RightLeg -1.203121 -0.000000 0.000000
RightFoot -10.372869 -6.683856 3.576679
RightToeBase 5.321415 -0.000000 -0.000000
LeftUpLeg -3.483590 1.765421 1.267822
LeftLeg -1.081417 -0.000000 0.000000
LeftFoot -6.565739 -2.553196 -9.957598
LeftToeBase 7.984624 -0.000000 -0.000000
Spine -12.127945 -3.389553 -4.828008
RightShoulder -29.986261 9.877591 -51.551503
RightArm 135.795770 48.122752 114.472562
RightForeArm 36.671730 -0.000000 151.662103
RightHand 21.024447 -0.000000 -15.645489
RightHandThumb1 -24.326973 -0.000000 -32.862282
LeftShoulder -10.608736 16.461238 12.749855
LeftArm -171.813438 61.019034 -270.326483
LeftForeArm 20.030072 0.000000 130.551234
LeftHand 2.265669 -0.000000 -36.210337
LeftHandThumb1 -26.253704 0.000000 33.147579
Head 5.814874 4.755403 3.822301
1779
root -2.842995 33.318999 -0.408901 9.888087 4.421531 3.100369
RightUpLeg -1.815912 -8.866117 -1.487612
RightLeg -1.218322 -0.000000 0.000000
RightFoot -10.336794 -6.686193 3.541039
RightToeBase 5.302137 -0.000000 -0.000000
LeftUpLeg -3.468836 1.821164 1.254755
LeftLeg -1.085012 -0.000000 0.000000
LeftFoot -6.551158 -2.544582 -9.981698
LeftToeBase 7.950567 -0.000000 -0.000000
Spine -12.081917 -3.463378 -4.792988
RightShoulder -30.017078 9.886815 -51.530151
RightArm 135.863966 48.031983 114.475455
RightForeArm 36.364365 0.000000 151.682436
RightHand 20.801835 0.000000 -15.543900
RightHandThumb1 -24.326973 -0.000000 -32.862282
LeftShoulder -10.606741 16.543433 12.757589
LeftArm -171.560170 61.081032 -270.012182
LeftForeArm 20.051009 -0.000000 130.580342
LeftHand 2.119002 -0.000000 -36.435569
LeftHandThumb1 -26.253704 0.000000 33.147579
Head 5.722337 4.861404 3.839416
1780
root -2.843531 33.320889 -0.411477 9.891637 4.333046 3.095023
RightUpLeg -1.838478 -8.829037 -1.488611
RightLeg -1.224971 -0.000000 0.000000
RightFoot -10.312160 -6.643084 3.562706
RightToeBase 5.325081 -0.000000 -0.000000
LeftUpLeg -3.462606 1.876578 1.245760
LeftLeg -1.084142 -0.000000 0.000000
LeftFoot -6.554574 -2.503154 -9.980352
LeftToeBase 7.972512 -0.000000 -0.000000
Spine -12.055194 -3.490143 -4.771930
RightShoulder -30.040092 9.871234 -51.492017
RightArm 135.973106 47.939438 114.509250
RightForeArm 36.154046 -0.000000 151.705381
RightHand 20.624708 0.000000 -15.683422
RightHandThumb1 -24.326973 -0.000000 -32.862282
LeftShoulder -10.555529 16.600519 12.786030
LeftArm -171.307182 61.131394 -269.698984
LeftForeArm 19.966291 -0.000000 130.594363
LeftHand 1.928095 -0.000000 -36.592437
LeftHandThumb1 -26.253704 0.000000 33.147579
Head 5.648923 4.911002 3.869010
1781
root -2.841840 33.322103 -0.413550 9.886456 4.229030 3.089526
RightUpLeg -1.859582 -8.731518 -1.499795
RightLeg -1.218122 -0.000000 0.000000
RightFoot -10.298467 -6.649248 3.561282
RightToeBase 5.384033 -0.000000 -0.000000
LeftUpLeg -3.438986 1.942066 1.232066
LeftLeg -1.096912 -0.000000 0.000000
LeftFoot -6.555822 -2.466642 -10.000596
LeftToeBase 7.985079 -0.000000 -0.000000
Spine -12.025637 -3.530160 -4.737675
RightShoulder -30.039387 9.876019 -51.450876
RightArm 136.095447 47.823529 114.555223
RightForeArm 35.888227 0.000000 151.747209
RightHand 20.519743 -0.000000 -15.707437
RightHandThumb1 -24.326973 -0.000000 -32.862282
LeftShoulder -10.559002 16.698420 12.791858
LeftArm -171.217757 61.111676 -269.572112
LeftForeArm 20.067141 -0.000000 130.618717
LeftHand 1.797322 -0.000000 -36.636025
LeftHandThumb1 -26.253704 0.000000 33.147579
Head 5.588812 4.988613 3.881533
1782
root -2.839783 33.323326 -0.415610 9.883034 4.113013 3.081621
RightUpLeg -1.881818 -8.656104 -1.510508
RightLeg -1.215684 -0.000000 0.000000
RightFoot -10.275093 -6.617542 3.560984
RightToeBase 5.368058 -0.000000 -0.000000
LeftUpLeg -3.412746 2.006409 1.219564
LeftLeg -1.112706 -0.000000 0.000000
LeftFoot -6.559097 -2.411406 -9.997158
LeftToeBase 7.974263 -0.000000 -0.000000
Spine -12.002464 -3.574404 -4.701016
RightShoulder -30.031783 9.910878 -51.419581
RightArm 136.161533 47.729558 114.537815
RightForeArm 35.575828 -0.000000 151.807115
RightHand 20.368947 -0.000000 -15.879990
RightHandThumb1 -24.326973 -0.000000 -32.862282
LeftShoulder -10.588673 16.767891 12.788451
LeftArm -171.134870 61.096254 -269.471409
LeftForeArm 20.114768 -0.000000 130.646658
LeftHand 1.712721 -0.000000 -36.671328
LeftHandThumb1 -26.253704 0.000000 33.147579
Head 5.528765 5.034762 3.898004
1783
root -2.839175 33.324370 -0.417379 9.882070 4.000233 3.075718
RightUpLeg -1.904541 -8.585933 -1.519969
RightLeg -1.217398 -0.000000 0.000000
RightFoot -10.244114 -6.583115 3.546132
RightToeBase 5.344737 -0.000000 -0.000000
LeftUpLeg -3.389697 2.060641 1.210139
LeftLeg -1.125146 -0.000000 0.000000
LeftFoot -6.566791 -2.359688 -10.024752
LeftToeBase 7.969319 -0.000000 -0.000000
Spine -11.983478 -3.621019 -4.667404
RightShoulder -30.019616 9.960337 -51.401498
RightArm 136.249513 47.639568 114.515397
RightForeArm 35.319952 -0.000000 151.852689
RightHand 20.251922 -0.000000 -16.026133
RightHandThumb1 -24.326973 -0.000000 -32.862282
LeftShoulder -10.592469 16.794594 12.805170
LeftArm -170.980098 61.105574 -269.322891
LeftForeArm 20.122649 -0.000000 130.664225
LeftHand 1.554011 -0.000000 -36.721161
LeftHandThumb1 -26.253704 0.000000 33.147579
Head 5.474655 5.071151 3.901975
1784
root -2.838638 33.325300 -0.419894 9.880101 3.884188 3.066886
RightUpLeg -1.925251 -8.526252 -1.525297
RightLeg -1.225412 -0.000000 0.000000
RightFoot -10.213248 -6.542804 3.510431
RightToeBase 5.317757 -0.000000 -0.000000
LeftUpLeg -3.367924 2.107112 1.202464
LeftLeg -1.138189 -0.000000 0.000000
LeftFoot -6.575988 -2.290492 -10.014532
LeftToeBase 7.973292 -0.000000 -0.000000
Spine -11.964157 -3.665868 -4.630402
RightShoulder -30.022904 9.993215 -51.366148
RightArm 136.287266 47.567435 114.378369
RightForeArm 35.069711 -0.000000 151.889489
RightHand 20.100039 -0.000000 -16.207992
RightHandThumb1 -24.326973 -0.000000 -32.862282
LeftShoulder -10.573292 16.794223 12.829599
LeftArm -170.769192 61.084680 -269.163647
LeftForeArm 20.201550 -0.000000 130.643944
LeftHand 1.425700 0.000000 -36.708252
LeftHandThumb1 -26.253704 0.000000 33.147579
Head 5.419170 5.088376 3.900458
